# xmcd
# 
# Track frame offsets:
#   150
#   18543
#   38253
#   55053
#   71785
#   89982
#   105498
#   119363
#   135228
#   151078
#   164589
#   182804
#   199541
#   215428
# 
# Disc length: 3113 seconds
# 
# Revision: 2
# Processed by: cddbd v1.5.1PL2 Copyright (c) Steve Scherf et al.
# Submitted via: Synapstar 1.0 
# 
DISCID=bb0c270e
DTITLE=Various Artist - SD105
DYEAR=1900
DGENRE=Country
TTITLE0=Sara Evans - Backseat Of A Greyhound Bus
TTITLE1=Mark Wills - When You Think Of Me
TTITLE2=Kellie Coffey - Whatever It Takes
TTITLE3=Garth Brooks - Why Aint It Raining
TTITLE4=Steve Holy - Rock A Bye Heart
TTITLE5=Trick Pony - Boy Like You
TTITLE6=Anthony Smith - Half A Man
TTITLE7=Mark Chesnutt - I'm In Love With A Married Woman
TTITLE8=Amy Dalley - Love's Got An Attitude
TTITLE9=Charlie Daniels Band and Travis Tritt - Southern Boy
TTITLE10=Brett James - After All
TTITLE11=Jimmy Wayne - Stay Gone
TTITLE12=Tanya Tucker - Old Weakness (Coming On Strong)
TTITLE13=LeAnn Rimes - Suddenly
EXTD=MediaType: Karaoke CD+G Producer: StarDisc
EXTT0=
EXTT1=
EXTT2=
EXTT3=
EXTT4=
EXTT5=
EXTT6=
EXTT7=
EXTT8=
EXTT9=
EXTT10=
EXTT11=
EXTT12=
EXTT13=
PLAYORDER=
